<svg id="payment-method" xmlns="http://www.w3.org/2000/svg" width="12.646" height="12.645" viewBox="0 0 12.646 12.645">
  <g id="Group_76" data-name="Group 76" transform="translate(3.773 9.48)">
    <g id="Group_75" data-name="Group 75">
      <path id="Path_317" data-name="Path 317" d="M153.239,384.056a.257.257,0,0,0-.014-.046.251.251,0,0,0-.023-.042.241.241,0,0,0-.068-.068.242.242,0,0,0-.043-.023.231.231,0,0,0-.046-.014.244.244,0,0,0-.1,0,.238.238,0,0,0-.046.014.248.248,0,0,0-.042.023.247.247,0,0,0-.091.111.24.24,0,0,0-.014.046.237.237,0,0,0,0,.1.233.233,0,0,0,.014.046.23.23,0,0,0,.023.043.241.241,0,0,0,.068.068.251.251,0,0,0,.042.023.242.242,0,0,0,.143.014.233.233,0,0,0,.046-.014.248.248,0,0,0,.043-.023.241.241,0,0,0,.068-.068.246.246,0,0,0,.023-.043.249.249,0,0,0,.014-.046.237.237,0,0,0,0-.1Z" transform="translate(-152.75 -383.857)" fill="#fff"/>
    </g>
  </g>
  <g id="Group_78" data-name="Group 78" transform="translate(0 7.654)">
    <g id="Group_77" data-name="Group 77">
      <path id="Path_318" data-name="Path 318" d="M11.362,312.023l0-.007a1.027,1.027,0,0,0-1.391-.513l-1.721.476a1.128,1.128,0,0,0-.7-.688l-.007,0-1.892-.642a1.951,1.951,0,0,0-1.574-.724,1.975,1.975,0,0,0-1.543.925H.247a.247.247,0,0,0-.247.247v3.114a.247.247,0,0,0,.247.247H1.716a.247.247,0,0,0,.247-.247v-.213h.689a.247.247,0,0,0,.247-.247v-.071a1.751,1.751,0,0,1,.9.324,14.95,14.95,0,0,0,1.484.758l.011,0a2.217,2.217,0,0,0,.795.15,1.968,1.968,0,0,0,.818-.175l3.8-1.362.02-.008A1.054,1.054,0,0,0,11.362,312.023Zm-9.893,1.938H.494v-2.62h.975Zm.936-.46H1.963v-2.16H2.4Zm8.13-.587-3.8,1.361-.011,0-.01,0a1.6,1.6,0,0,1-1.23.021,14.31,14.31,0,0,1-1.434-.733,2.223,2.223,0,0,0-1.149-.391v-1.989a1.525,1.525,0,0,1,1.178-.777,1.425,1.425,0,0,1,1.209.568.247.247,0,0,0,.131.1l1.963.666a.554.554,0,0,1,.4.654.481.481,0,0,1-.591.332l-2.213-.7a.247.247,0,0,0-.149.471l2.217.7.007,0a.969.969,0,0,0,.741-.086.969.969,0,0,0,.463-.585q.009-.03.015-.06l1.855-.514c.268-.091.619-.124.776.236C11.065,312.629,10.644,312.862,10.534,312.914Z" transform="translate(0 -309.922)" fill="#fff"/>
    </g>
  </g>
  <g id="Group_80" data-name="Group 80" transform="translate(8.379 3.05)">
    <g id="Group_79" data-name="Group 79">
      <path id="Path_319" data-name="Path 319" d="M339.739,123.7a.245.245,0,0,0-.105-.157.251.251,0,0,0-.043-.023.24.24,0,0,0-.046-.014.244.244,0,0,0-.1,0,.231.231,0,0,0-.046.014.242.242,0,0,0-.043.023.239.239,0,0,0-.068.068.251.251,0,0,0-.023.042.242.242,0,0,0-.014.143.232.232,0,0,0,.014.046.244.244,0,0,0,.023.043.239.239,0,0,0,.068.068.243.243,0,0,0,.043.023.249.249,0,0,0,.046.014.244.244,0,0,0,.048,0,.248.248,0,0,0,.048,0,.26.26,0,0,0,.046-.014.253.253,0,0,0,.043-.023.24.24,0,0,0,.038-.031.237.237,0,0,0,.031-.038.256.256,0,0,0,.037-.089.249.249,0,0,0,0-.1Z" transform="translate(-339.25 -123.498)" fill="#fff"/>
    </g>
  </g>
  <g id="Group_82" data-name="Group 82" transform="translate(0.733 0)">
    <g id="Group_81" data-name="Group 81">
      <path id="Path_320" data-name="Path 320" d="M41.357.86H39.888a.247.247,0,0,0-.247.247V1.32h-.689a.247.247,0,0,0-.247.247v.071a1.751,1.751,0,0,1-.9-.324A14.945,14.945,0,0,0,36.319.557l-.011,0A2.1,2.1,0,0,0,34.7.577L33.7.933,32.864.1a.247.247,0,0,0-.349,0l-2.75,2.75a.245.245,0,0,0,0,.349l4.7,4.7a.267.267,0,0,0,.349,0l2.511-2.511c.065.006.133.009.2.009a1.975,1.975,0,0,0,1.543-.925h2.286a.247.247,0,0,0,.247-.247V1.107A.247.247,0,0,0,41.357.86ZM32.689.62l.563.563a1.077,1.077,0,0,1-1.126,0ZM30.851,3.584l-.563-.563.563-.563a1.077,1.077,0,0,1,0,1.126Zm3.788,3.788-.563-.563a1.075,1.075,0,0,1,1.126,0Zm.919-.919a1.57,1.57,0,0,0-1.837,0L31.207,3.939a1.57,1.57,0,0,0,0-1.838l.564-.564a1.57,1.57,0,0,0,1.838,0l.534.534a.979.979,0,0,0-.735.539,1.408,1.408,0,1,0,1.619,1.743l.834.283a1.577,1.577,0,0,0,.262,1.252Zm-1.5-2.428.007,0,.494.168A.914.914,0,1,1,33.316,3.15,1.094,1.094,0,0,0,34.056,4.024Zm2.422,1.508a1.08,1.08,0,0,1-.158-.514,1.92,1.92,0,0,0,.436.236Zm2.228-1.41a1.525,1.525,0,0,1-1.178.777,1.8,1.8,0,0,1-.258-.018h0a1.415,1.415,0,0,1-.915-.5l-.03-.04a.246.246,0,0,0-.136-.113L34.224,3.56a.554.554,0,0,1-.4-.654h0a.481.481,0,0,1,.591-.331l2.213.7a.247.247,0,1,0,.149-.471l-1.76-.558L35,2.231h0l-.911-.911.783-.28.009,0h0l.01,0a1.6,1.6,0,0,1,1.23-.021,14.308,14.308,0,0,1,1.434.733,2.223,2.223,0,0,0,1.149.391Zm.936-.149H39.2V1.814h.442Zm1.469,0h-.975V1.354h.975Z" transform="translate(-29.691 -0.023)" fill="#fff"/>
    </g>
  </g>
</svg>
