<svg xmlns="http://www.w3.org/2000/svg" width="18" height="18" viewBox="0 0 18 18">
  <g id="Group_2609" data-name="Group 2609" transform="translate(-172.164 -90.164)">
    <g id="Rectangle_1018" data-name="Rectangle 1018" transform="translate(172.164 90.164)" fill="#fff" stroke="#707070" stroke-width="1.5">
      <path d="M2,0H6A2,2,0,0,1,8,2V8A0,0,0,0,1,8,8H2A2,2,0,0,1,0,6V2A2,2,0,0,1,2,0Z" stroke="none"/>
      <path d="M2,.75H6A1.25,1.25,0,0,1,7.25,2V6.5a.75.75,0,0,1-.75.75H2A1.25,1.25,0,0,1,.75,6V2A1.25,1.25,0,0,1,2,.75Z" fill="none"/>
    </g>
    <g id="Rectangle_1019" data-name="Rectangle 1019" transform="translate(190.164 108.164) rotate(180)" fill="#fff" stroke="#707070" stroke-width="1.5">
      <path d="M2,0H6A2,2,0,0,1,8,2V8A0,0,0,0,1,8,8H2A2,2,0,0,1,0,6V2A2,2,0,0,1,2,0Z" stroke="none"/>
      <path d="M2,.75H6A1.25,1.25,0,0,1,7.25,2V6.5a.75.75,0,0,1-.75.75H2A1.25,1.25,0,0,1,.75,6V2A1.25,1.25,0,0,1,2,.75Z" fill="none"/>
    </g>
    <g id="Rectangle_1021" data-name="Rectangle 1021" transform="translate(180.164 108.164) rotate(180)" fill="#fff" stroke="#707070" stroke-width="1.5">
      <path d="M2,0H6A2,2,0,0,1,8,2V6A2,2,0,0,1,6,8H0A0,0,0,0,1,0,8V2A2,2,0,0,1,2,0Z" stroke="none"/>
      <path d="M2,.75H6A1.25,1.25,0,0,1,7.25,2V6A1.25,1.25,0,0,1,6,7.25H1.5A.75.75,0,0,1,.75,6.5V2A1.25,1.25,0,0,1,2,.75Z" fill="none"/>
    </g>
    <g id="Rectangle_1020" data-name="Rectangle 1020" transform="translate(182.164 90.164)" fill="#fff" stroke="#707070" stroke-width="1.5">
      <path d="M2,0H6A2,2,0,0,1,8,2V6A2,2,0,0,1,6,8H0A0,0,0,0,1,0,8V2A2,2,0,0,1,2,0Z" stroke="none"/>
      <path d="M2,.75H6A1.25,1.25,0,0,1,7.25,2V6A1.25,1.25,0,0,1,6,7.25H1.5A.75.75,0,0,1,.75,6.5V2A1.25,1.25,0,0,1,2,.75Z" fill="none"/>
    </g>
  </g>
</svg>
