<svg xmlns="http://www.w3.org/2000/svg" width="15.981" height="16.215" viewBox="0 0 15.981 16.215">
  <g id="grid" transform="translate(-2.612)">
    <g id="Group_100" data-name="Group 100" transform="translate(2.612)">
      <g id="Group_99" data-name="Group 99" transform="translate(0)">
        <path id="Path_3553" data-name="Path 3553" d="M6.842,0H3.082a.47.47,0,0,0-.47.47V4.23a.47.47,0,0,0,.47.47h3.76a.47.47,0,0,0,.47-.47V.47A.47.47,0,0,0,6.842,0Z" transform="translate(-2.612 0)" fill="#f16a29"/>
        <path id="Path_3554" data-name="Path 3554" d="M132.23,0h-3.76a.47.47,0,0,0-.47.47V4.23a.47.47,0,0,0,.47.47h3.76a.47.47,0,0,0,.47-.47V.47A.47.47,0,0,0,132.23,0Z" transform="translate(-122.36 0)" fill="#f16a29"/>
        <path id="Path_3555" data-name="Path 3555" d="M6.842,125.388H3.082a.47.47,0,0,0-.47.47v3.76a.47.47,0,0,0,.47.47h3.76a.47.47,0,0,0,.47-.47v-3.76A.47.47,0,0,0,6.842,125.388Z" transform="translate(-2.612 -119.748)" fill="#f16a29"/>
        <path id="Path_3556" data-name="Path 3556" d="M132.23,125.388h-3.76a.47.47,0,0,0-.47.47v3.76a.47.47,0,0,0,.47.47h3.76a.47.47,0,0,0,.47-.47v-3.76A.47.47,0,0,0,132.23,125.388Z" transform="translate(-122.36 -119.748)" fill="#a8a8a8"/>
        <path id="Path_3557" data-name="Path 3557" d="M257.618,0h-3.76a.47.47,0,0,0-.47.47V4.23a.47.47,0,0,0,.47.47h3.76a.47.47,0,0,0,.47-.47V.47A.47.47,0,0,0,257.618,0Z" transform="translate(-242.108 0)" fill="#a8a8a8"/>
        <path id="Path_3558" data-name="Path 3558" d="M257.618,125.388h-3.76a.47.47,0,0,0-.47.47v3.76a.47.47,0,0,0,.47.47h3.76a.47.47,0,0,0,.47-.47v-3.76A.47.47,0,0,0,257.618,125.388Z" transform="translate(-242.108 -119.748)" fill="#f16a29"/>
        <path id="Path_3559" data-name="Path 3559" d="M6.842,256H3.082a.47.47,0,0,0-.47.47v3.76a.47.47,0,0,0,.47.47h3.76a.47.47,0,0,0,.47-.47v-3.76A.47.47,0,0,0,6.842,256Z" transform="translate(-2.612 -244.485)" fill="#f16a29"/>
        <path id="Path_3560" data-name="Path 3560" d="M132.23,256h-3.76a.47.47,0,0,0-.47.47v3.76a.47.47,0,0,0,.47.47h3.76a.47.47,0,0,0,.47-.47v-3.76A.47.47,0,0,0,132.23,256Z" transform="translate(-122.36 -244.485)" fill="#a8a8a8"/>
        <path id="Path_3561" data-name="Path 3561" d="M257.618,256h-3.76a.47.47,0,0,0-.47.47v3.76a.47.47,0,0,0,.47.47h3.76a.47.47,0,0,0,.47-.47v-3.76A.47.47,0,0,0,257.618,256Z" transform="translate(-242.108 -244.485)" fill="#f16a29"/>
      </g>
    </g>
  </g>
</svg>
